<?xml version="1.0" encoding="utf-8"?>
<!-- Generator: Adobe Illustrator 24.0.1, SVG Export Plug-In . SVG Version: 6.00 Build 0)  -->
<svg version="1.1" id="Layer_1" xmlns="http://www.w3.org/2000/svg" xmlns:xlink="http://www.w3.org/1999/xlink" x="0px" y="0px"
	 width="589.67535px" height="155.36501px" viewBox="0 0 589.67535 155.36501"
	 style="enable-background:new 0 0 589.67535 155.36501;" xml:space="preserve">
<style type="text/css">
	.st0{fill:url(#SVGID_1_);}
	.st1{fill:url(#SVGID_2_);}
	.st2{fill:url(#SVGID_3_);}
	.st3{fill:url(#SVGID_4_);}
	.st4{fill:url(#SVGID_5_);}
	.st5{fill:url(#SVGID_6_);}
	.st6{fill:url(#SVGID_7_);}
	.st7{enable-background:new    ;}
	.st8{fill:#FFFFFF;}
</style>
<g>
	<linearGradient id="SVGID_1_" gradientUnits="userSpaceOnUse" x1="114.61814" y1="162.78271" x2="219.7888" y2="28.1188">
		<stop  offset="0" style="stop-color:#FFCB00"/>
		<stop  offset="0" style="stop-color:#FFC500"/>
		<stop  offset="1" style="stop-color:#A97C00"/>
	</linearGradient>
	<polygon class="st0" points="174.89999,155.364 146.7,113.17 146.7,80.462 127.18999,51.273 127.18999,34.918 154.42999,75.672 
		154.42999,108.38 179.28299,145.564 190.215,145.564 162.159,103.59 162.159,87.237 207.7,155.36501 	"/>
	<linearGradient id="SVGID_2_" gradientUnits="userSpaceOnUse" x1="64.36105" y1="215.79866" x2="182.83704" y2="64.09817">
		<stop  offset="0" style="stop-color:#FFCB00"/>
		<stop  offset="0" style="stop-color:#FFC500"/>
		<stop  offset="1" style="stop-color:#A97C00"/>
	</linearGradient>
	<polygon class="st1" points="131.174,155.364 120.707,139.7 131.63901,139.7 135.55801,145.563 146.49001,145.563 
		135.99001,129.86301 114.15201,129.90001 103.84401,114.48001 83.072,145.564 102.78799,145.564 98.4,138.993 103.86501,130.815 
		120.27501,155.36501 65.589,155.36501 103.849,98.12601 118.512,120.06201 140.37399,120.06201 163.974,155.36201 	"/>
	<linearGradient id="SVGID_3_" gradientUnits="userSpaceOnUse" x1="-30.86089" y1="225.72343" x2="151.43132" y2="-7.6894">
		<stop  offset="0" style="stop-color:#FFCB00"/>
		<stop  offset="0" style="stop-color:#FFC500"/>
		<stop  offset="1" style="stop-color:#A97C00"/>
	</linearGradient>
	<polygon class="st2" points="0,155.364 38.485,97.789 38.485,113.983 17.485,145.564 50.277,145.564 61.757,128.38899 61.674,95.8 
		73.936,77.46 84.868,77.46 69.487,100.47 69.487,133.30901 54.658,155.364 	"/>
	<linearGradient id="SVGID_4_" gradientUnits="userSpaceOnUse" x1="23.60724" y1="155.17674" x2="78.34495" y2="85.08881">
		<stop  offset="0" style="stop-color:#FFCB00"/>
		<stop  offset="0" style="stop-color:#FFC500"/>
		<stop  offset="1" style="stop-color:#A97C00"/>
	</linearGradient>
	<polygon class="st3" points="35,135.70999 53.944,107.20999 53.944,123.72599 45.932,135.71399 	"/>
	<linearGradient id="SVGID_5_" gradientUnits="userSpaceOnUse" x1="62.21308" y1="160.33969" x2="159.5594" y2="35.69431">
		<stop  offset="0" style="stop-color:#FFCB00"/>
		<stop  offset="0" style="stop-color:#FFC500"/>
		<stop  offset="1" style="stop-color:#A97C00"/>
	</linearGradient>
	<polygon class="st4" points="77.216,105.25999 103.84801,65.41599 133.82301,110.26099 122.893,110.26099 103.849,81.771 
		77.217,121.614 	"/>
	<linearGradient id="SVGID_6_" gradientUnits="userSpaceOnUse" x1="10.43996" y1="149.64336" x2="155.48651" y2="-36.07895">
		<stop  offset="0" style="stop-color:#FFCB00"/>
		<stop  offset="0" style="stop-color:#FFC500"/>
		<stop  offset="1" style="stop-color:#A97C00"/>
	</linearGradient>
	<polygon class="st5" points="46.216,86.224 46.216,86.217 65.2,57.822 87.063,57.822 103.85001,32.709 104.00001,32.934 
		104.00001,49.288 103.85001,49.063 91.419,67.66 69.58,67.622 46.215,102.422 	"/>
	
		<linearGradient id="SVGID_7_" gradientUnits="userSpaceOnUse" x1="-124.30115" y1="670.75543" x2="-123.30736" y2="669.48291" gradientTransform="matrix(207.7 0 0 -155.36501 25843.77148 104177.14063)">
		<stop  offset="0" style="stop-color:#FFCB00"/>
		<stop  offset="0" style="stop-color:#FFC500"/>
		<stop  offset="1" style="stop-color:#A97C00"/>
	</linearGradient>
	<polygon class="st6" points="111.73,60.852 111.73,28.144 103.84901,16.354 82.682,48.02 71.751,48.02 103.849,0 119.459,23.295 
		119.459,56.062 138.96899,85.252 138.96899,101.606 	"/>
	<g class="st7">
		<path class="st8" d="M250.73981,49.77312V59.9196H225.336v10.51172h22.84912v9.70898H225.336v10.58594h26.20703v10.07422
			h-37.59521V49.77312H250.73981z"/>
		<path class="st8" d="M297.89752,59.62859v41.17188h-11.38818V59.62859h-14.4541v-9.85547h40.2959v9.85547H297.89752z"/>
		<path class="st8" d="M366.95465,49.77312h11.3877v51.02734h-11.3877V80.72429h-20.29395v20.07617h-11.38867V49.77312h11.38867
			v21.31641h20.29395V49.77312z"/>
		<path class="st8" d="M446.88922,66.70866c0,8.17578-3.2373,13.45703-9.70898,15.8418l12.9209,18.25h-14.01563l-11.31543-16.2793
			h-7.88379v16.2793h-11.38867V49.77312h19.3457c7.93164,0,13.58887,1.33984,16.97266,4.01563
			C445.19781,56.46452,446.88922,60.77116,446.88922,66.70866z M433.16461,72.76726
			c1.41113-1.26367,2.11719-3.27148,2.11719-6.02148s-0.72949-4.63672-2.18945-5.6582s-4.01563-1.5332-7.66504-1.5332h-8.54102
			V74.6657h8.32129C429.10114,74.6657,431.7525,74.03484,433.16461,72.76726z"/>
		<path class="st8" d="M486.6734,87.62273c1.89844,2.36133,4.45313,3.54102,7.66504,3.54102s5.75488-1.17969,7.62891-3.54102
			c1.87207-2.35938,2.81055-5.58398,2.81055-9.67188V49.77312h11.3877v28.54297c0,7.39844-2.04395,13.08008-6.13184,17.04492
			c-4.08789,3.9668-9.32031,5.94922-15.69531,5.94922c-6.37598,0-11.61914-1.99414-15.73145-5.98438
			c-4.11328-3.99023-6.16895-9.66016-6.16895-17.00977V49.77312h11.38867v28.17773
			C483.82672,82.03874,484.77496,85.26335,486.6734,87.62273z"/>
		<path class="st8" d="M578.28766,49.77312h11.3877v51.02734h-11.3877l-24.30859-31.97461v31.97461h-11.38867V49.77312h10.6582
			l25.03906,32.84961V49.77312z"/>
	</g>
</g>
</svg>
