<?xml version="1.0" encoding="utf-8"?>
<!-- Generator: Adobe Illustrator 24.0.1, SVG Export Plug-In . SVG Version: 6.00 Build 0)  -->
<svg version="1.1" id="Layer_1" xmlns="http://www.w3.org/2000/svg" xmlns:xlink="http://www.w3.org/1999/xlink" x="0px" y="0px"
	 width="3026.98047px" height="2879.34253px" viewBox="0 0 3026.98047 2879.34253"
	 style="enable-background:new 0 0 3026.98047 2879.34253;" xml:space="preserve">
<style type="text/css">
	.st0{fill:url(#SVGID_1_);}
	.st1{fill:url(#SVGID_2_);}
	.st2{fill:url(#SVGID_3_);}
	.st3{fill:url(#SVGID_4_);}
	.st4{fill:url(#SVGID_5_);}
	.st5{fill:url(#SVGID_6_);}
	.st6{fill:url(#SVGID_7_);}
	.st7{enable-background:new    ;}
	.st8{fill:#FFFFFF;}
</style>
<linearGradient id="SVGID_1_" gradientUnits="userSpaceOnUse" x1="2187.36108" y1="-47.44522" x2="2190.22559" y2="-43.77726" gradientTransform="matrix(516.82996 0 0 639.39301 -1129976.125 30433.44727)">
	<stop  offset="0" style="stop-color:#FFCB00"/>
	<stop  offset="0" style="stop-color:#FFC500"/>
	<stop  offset="1" style="stop-color:#A97C00"/>
</linearGradient>
<path class="st0" d="M673.53088,1288.58374v242.13721l340.52374-520.05389l318.27679,0.55725l181.16614-277.94946l2.18518,3.36652
	V492.22287l-2.18518-3.36484L1268.84937,864.1886H950.22058L673.53088,1288.58374z"/>
<linearGradient id="SVGID_2_" gradientUnits="userSpaceOnUse" x1="2187.3186" y1="-47.85395" x2="2190.18311" y2="-44.18623" gradientTransform="matrix(506.30005 0 0 515.45801 -1106602 25436.14453)">
	<stop  offset="0" style="stop-color:#FFCB00"/>
	<stop  offset="0" style="stop-color:#FFC500"/>
	<stop  offset="1" style="stop-color:#A97C00"/>
</linearGradient>
<path class="st1" d="M1513.49756,977.70148l-388.13647,595.49774v244.41846l388.13647-595.49292l277.54529,425.81445h159.31201
	L1513.49756,977.70148z"/>
<linearGradient id="SVGID_3_" gradientUnits="userSpaceOnUse" x1="2188.38574" y1="-46.34211" x2="2191.25024" y2="-42.67414" gradientTransform="matrix(601.20898 0 0 931.95801 -1314829.75 42638.40234)">
	<stop  offset="0" style="stop-color:#FFCB00"/>
	<stop  offset="0" style="stop-color:#FFC500"/>
	<stop  offset="1" style="stop-color:#A97C00"/>
</linearGradient>
<path class="st2" d="M1205.00403,717.70215l308.50012-473.27725l114.84399,176.20776v488.84665l396.99426,609.10541v-244.4314
	l-284.34338-436.26733V348.15283L1513.50415-0.00003l-467.80554,717.70215H1205.00403z"/>
<linearGradient id="SVGID_4_" gradientUnits="userSpaceOnUse" x1="2189.60522" y1="-47.40495" x2="2192.46973" y2="-43.73698" gradientTransform="matrix(879.94501 0 0 525.00708 -1926280.875 26144.32031)">
	<stop  offset="0" style="stop-color:#FFCB00"/>
	<stop  offset="0" style="stop-color:#FFC500"/>
	<stop  offset="1" style="stop-color:#A97C00"/>
</linearGradient>
<path class="st3" d="M1727.1991,1794.41907l-213.70154-327.85474l-557.59985,855.47595h796.91809l-239.15039-366.91443
	l-79.65112,122.22717l64.01318,98.21216h-287.34143l302.81152-464.58081l150.22607,230.46704l318.26538-0.54749l152.95874,234.65808
	h-159.33313l-57.11243-87.6355h-159.31677l152.6001,234.11206h477.94397l-343.90479-527.6178L1727.1991,1794.41907z"/>
<linearGradient id="SVGID_5_" gradientUnits="userSpaceOnUse" x1="2175.1062" y1="-51.71422" x2="2177.9707" y2="-48.0465" gradientTransform="matrix(169.43201 0 0 261.436 -368073.4375 14961.92773)">
	<stop  offset="0" style="stop-color:#FFCB00"/>
	<stop  offset="0" style="stop-color:#FFC500"/>
	<stop  offset="1" style="stop-color:#A97C00"/>
</linearGradient>
<path class="st4" d="M510.10129,2028.29651h159.3168l116.7652-179.16028v-246.83826L510.10129,2028.29651z"/>
<linearGradient id="SVGID_6_" gradientUnits="userSpaceOnUse" x1="2189.49731" y1="-45.60703" x2="2192.36182" y2="-41.93906" gradientTransform="matrix(720.07501 0 0 1104.76489 -1575061.625 50344.98438)">
	<stop  offset="0" style="stop-color:#FFCB00"/>
	<stop  offset="0" style="stop-color:#FFC500"/>
	<stop  offset="1" style="stop-color:#A97C00"/>
</linearGradient>
<path class="st5" d="M2363.29492,1303.82397v244.41846l408.9021,627.32275h-159.32642l-362.21509-555.73743v-488.85144
	L1853.6499,521.88556v244.4184l284.34009,436.25757v488.85474l411.04492,630.62402l477.94556,0.01147L2363.29492,1303.82397z"/>
<linearGradient id="SVGID_7_" gradientUnits="userSpaceOnUse" x1="2188.86914" y1="-46.6543" x2="2191.73364" y2="-42.98634" gradientTransform="matrix(759.06506 0 0 714.56104 -1661722.25 34056.75781)">
	<stop  offset="0" style="stop-color:#FFCB00"/>
	<stop  offset="0" style="stop-color:#FFC500"/>
	<stop  offset="1" style="stop-color:#A97C00"/>
</linearGradient>
<path class="st6" d="M1012.70538,1992.40137v-490.80042l224.1579-343.90649H1077.5415l-178.7074,274.17383l1.22052,487.01196
	l-167.30609,256.68323H254.79646l306.08521-472.00122v-242.03784L0,2322.04028h796.58575L1012.70538,1992.40137z"/>
<g class="st7">
	<path class="st8" d="M298.63962,2475.55396v79.49951H99.60568v82.35913h179.0174v76.06738H99.60568v82.93042h205.32581v78.92847
		H10.38341v-399.78491H298.63962z"/>
	<path class="st8" d="M668.10767,2552.76538v322.57349h-89.22229v-322.57349H465.64139v-77.21143h315.7103v77.21143H668.10767z"/>
	<path class="st8" d="M1209.15393,2475.55396h89.22388v399.78491h-89.22388v-157.28394h-158.99768v157.28394h-89.22382v-399.78491
		h89.22382v167.00488h158.99768V2475.55396z"/>
	<path class="st8" d="M1835.42371,2608.24316c0,64.0564-25.36157,105.43408-76.06885,124.11084l101.23474,142.98486h-109.81335
		l-88.651-127.54321h-61.76807v127.54321h-89.22388v-399.78491h151.56482c62.14539,0,106.47009,10.49121,132.97571,31.45605
		C1822.17004,2527.98462,1835.42371,2561.729,1835.42371,2608.24316z M1727.89868,2655.71387
		c11.05457-9.9104,16.58582-25.63843,16.58582-47.18433c0-21.5376-5.71912-36.31885-17.1571-44.32617
		c-11.43958-8.00732-31.45776-12.01099-60.05432-12.01099h-66.91589v118.39185h65.20044
		C1696.0575,2670.58423,1716.83618,2665.63379,1727.89868,2655.71387z"/>
	<path class="st8" d="M2147.12573,2772.10376c14.87036,18.49854,34.88843,27.73901,60.05273,27.73901
		c25.16577,0,45.08521-9.24048,59.76782-27.73901c14.6748-18.49048,22.02002-43.75342,22.02002-75.78247v-220.76733h89.22217
		v223.62695c0,57.96338-16.0144,102.47583-48.04175,133.54858c-32.02905,31.08057-73.02173,46.61304-122.96826,46.61304
		c-49.95459,0-91.03638-15.62964-123.25146-46.89941c-32.22632-31.2605-48.33008-75.68384-48.33008-133.26221v-223.62695h89.22241
		v220.76733C2124.81934,2728.35034,2132.25513,2753.61328,2147.12573,2772.10376z"/>
	<path class="st8" d="M2864.9043,2475.55396h89.22217v399.78491h-89.22217l-190.45557-250.50977v250.50977h-89.22388v-399.78491
		h83.50342l196.17603,257.37134V2475.55396z"/>
</g>
</svg>
