<?xml version="1.0" encoding="utf-8"?>
<!-- Generator: Adobe Illustrator 24.0.1, SVG Export Plug-In . SVG Version: 6.00 Build 0)  -->
<svg version="1.1" id="Layer_1" xmlns="http://www.w3.org/2000/svg" xmlns:xlink="http://www.w3.org/1999/xlink" x="0px" y="0px"
	 viewBox="0 0 789.30432 696.38342" style="enable-background:new 0 0 789.30432 696.38342;" xml:space="preserve">
<style type="text/css">
	.st0{enable-background:new    ;}
	.st1{fill:#FFFFFF;}
	.st2{fill-rule:evenodd;clip-rule:evenodd;fill:url(#Path_1_1_);}
	.st3{fill-rule:evenodd;clip-rule:evenodd;fill:url(#Path_2_1_);}
	.st4{opacity:0.2;fill-rule:evenodd;clip-rule:evenodd;fill:#F9FCBA;enable-background:new    ;}
	.st5{opacity:0.2;fill-rule:evenodd;clip-rule:evenodd;fill:#BA1C58;enable-background:new    ;}
	.st6{fill-rule:evenodd;clip-rule:evenodd;fill:url(#Path_5_1_);}
	.st7{opacity:0.2;fill-rule:evenodd;clip-rule:evenodd;fill:#C0392B;enable-background:new    ;}
	.st8{fill-rule:evenodd;clip-rule:evenodd;fill:url(#Path_7_1_);}
	.st9{opacity:0.2;fill-rule:evenodd;clip-rule:evenodd;fill:#8EFFC1;enable-background:new    ;}
	.st10{fill-rule:evenodd;clip-rule:evenodd;fill:url(#Path_9_1_);}
	.st11{opacity:0.2;fill-rule:evenodd;clip-rule:evenodd;fill:#B6FFFF;enable-background:new    ;}
	.st12{opacity:0.2;fill-rule:evenodd;clip-rule:evenodd;fill:#102770;enable-background:new    ;}
	.st13{fill-rule:evenodd;clip-rule:evenodd;fill:url(#Path_12_1_);}
	.st14{opacity:0.2;fill-rule:evenodd;clip-rule:evenodd;fill:#FFBCD8;enable-background:new    ;}
	.st15{opacity:0.2;fill-rule:evenodd;clip-rule:evenodd;fill:#1E003D;enable-background:new    ;}
	.st16{opacity:0.15;fill-rule:evenodd;clip-rule:evenodd;enable-background:new    ;}
	.st17{opacity:0.2;fill-rule:evenodd;clip-rule:evenodd;enable-background:new    ;}
	.st18{fill-rule:evenodd;clip-rule:evenodd;fill:url(#Path_21_1_);}
	.st19{fill-rule:evenodd;clip-rule:evenodd;fill:#DDE2E7;}
	.st20{fill-rule:evenodd;clip-rule:evenodd;fill:url(#Path_27_1_);}
	.st21{fill-rule:evenodd;clip-rule:evenodd;fill:#E8EBEE;}
	.st22{opacity:0.3;fill-rule:evenodd;clip-rule:evenodd;fill:#FFFFFF;enable-background:new    ;}
	.st23{fill-rule:evenodd;clip-rule:evenodd;fill:#1C2A39;}
	.st24{fill-rule:evenodd;clip-rule:evenodd;fill:#FFFFFF;}
	.st25{fill-rule:evenodd;clip-rule:evenodd;fill:#6C7A89;}
</style>
<g>
	<g class="st0">
		<path class="st1" d="M89.13576,685.33582c-23.10909,0-41.84617-7.07861-55.37867-20.40302
			c-6.66196-6.45355-12.07499-14.98938-15.61428-24.77429c-3.74733-9.7854-5.62107-21.44391-5.62107-33.93512V500.04623h51.21484
			v103.26212c0,13.53265,2.49827,22.69299,8.32765,28.52252c4.16383,4.37177,9.7849,6.45355,17.07153,6.45355
			c8.53583,0,14.98974-2.91449,19.36175-8.53583c4.78835-5.82898,7.07845-14.78119,7.07845-26.44025V500.04623h51.00666v106.17715
			c0,23.94153-6.87013,43.72003-19.98615,57.46033c-6.45406,7.07855-14.98988,12.49176-24.15024,15.82257
			C112.45315,683.46167,101.62723,685.33582,89.13576,685.33582z"/>
		<path class="st1" d="M301.07275,677.63269l-71.82565-94.51862v94.51862h-47.46724V500.25443h42.4707l74.11589,97.22495v-97.22495
			h47.4675v177.37827H301.07275z"/>
		<path class="st1" d="M363.1127,677.4245V499.83807h50.17383V677.4245H363.1127z"/>
		<path class="st1" d="M537.99078,677.4245l-29.77103-54.96216l-30.18793,54.96216h-58.50134l55.37866-86.60736l-52.88025-90.56271
			h58.70978l28.31381,53.08859l28.73016-53.08859H592.953l-50.5899,90.35458l55.37854,86.81549H537.99078z"/>
		<path class="st1" d="M688.30164,677.4245c-12.90753,0-24.77478-2.29047-35.80872-6.66223
			c-10.61761-4.16351-19.98615-10.61755-27.89746-18.52887c-7.91132-8.11951-13.94897-17.69623-18.11255-28.73016
			c-4.3717-11.24268-6.66223-23.73389-6.66223-36.84961c0-13.32446,2.29053-25.81567,6.66223-37.05835
			c4.16357-11.034,10.20123-20.61072,18.11255-28.73016c7.91132-8.11951,17.27985-14.36508,27.89746-18.73709
			c10.82581-4.37201,22.90118-6.66223,35.80872-6.66223c12.90814,0,24.98297,2.29022,35.80878,6.66223
			c10.61755,4.37201,19.98615,10.61758,27.8974,18.73709c7.91132,8.11945,13.94904,17.69617,18.11255,28.73016
			c4.37231,11.24268,6.66223,23.73389,6.66223,37.05835c0,13.11572-2.28992,25.60693-6.66223,36.84961
			c-4.16351,10.82581-10.20123,20.61066-18.11255,28.52197c-7.91125,8.11951-17.27985,14.36536-27.8974,18.73706
			C713.28461,675.13403,701.20978,677.4245,688.30164,677.4245z M687.05261,547.09711
			c-10.20129,0-19.77802,4.16382-26.44025,11.65851c-6.66223,7.49493-10.40942,17.69623-10.40942,28.73071
			c0,11.03394,3.74719,21.02704,10.40942,28.52197s16.23895,11.65851,26.44025,11.65851
			c10.61755,0,19.77795-3.95538,26.64838-11.65851c6.66217-7.28674,10.40942-17.48804,10.40942-28.52197
			c0-11.03448-3.74725-21.23578-10.40942-28.52252C707.03876,551.26093,697.46204,547.09711,687.05261,547.09711z"/>
	</g>
	<g id="Group_15" transform="translate(927.539 256.399)">
		
			<linearGradient id="Path_1_1_" gradientUnits="userSpaceOnUse" x1="-964.09094" y1="525.06281" x2="-964.45557" y2="524.65417" gradientTransform="matrix(888.20898 0 0 -523.23303 855857.5 274500.5625)">
			<stop  offset="0" style="stop-color:#CA2C68"/>
			<stop  offset="1" style="stop-color:#FF8C7C"/>
		</linearGradient>
		<path id="Path_1" class="st2" d="M-761.39301-41.00328l243.13165-93.62576l2.76849-51.23099l-115.57629,16.86732
			L-761.39301-41.00328z"/>
		
			<linearGradient id="Path_2_1_" gradientUnits="userSpaceOnUse" x1="-964.06042" y1="524.68994" x2="-964.34863" y2="524.42804" gradientTransform="matrix(1192.50598 0 0 -307.095 1149245.75 160928.92188)">
			<stop  offset="0" style="stop-color:#DA3C78"/>
			<stop  offset="1" style="stop-color:#F1C40F"/>
		</linearGradient>
		<path id="Path_2" class="st3" d="M-739.12268-140.7012l330.14456-4.4019l-116.99655-80.61716L-739.12268-140.7012z"/>
		<path id="Path_3" class="st4" d="M-736.11804-141.73965l220.62573-44.55365l-29.24219-31.78674L-736.11804-141.73965z"/>
		<path id="Path_4" class="st5" d="M-658.7865-141.77148l141.01459-1.87566l2.2793-42.21262l-123.31781,24.47044
			L-658.7865-141.77148z"/>
		
			<linearGradient id="Path_5_1_" gradientUnits="userSpaceOnUse" x1="-965.23328" y1="524.39343" x2="-965.60345" y2="524.62793" gradientTransform="matrix(582.42596 0 0 -414.43854 561807.75 217191.125)">
			<stop  offset="0" style="stop-color:#F39C12"/>
			<stop  offset="1" style="stop-color:#F1C40F"/>
		</linearGradient>
		<path id="Path_5" class="st6" d="M-473.04272-222.94899l-97.17914-22.40237l54.72845,59.49216
			c0,0,85.67657,89.38914,106.51584,40.75667l-9.76611-34.35204L-473.04272-222.94899z"/>
		<path id="Path_6" class="st7" d="M-545.13177-218.0795l29.63837,32.22057c0,0,24.10666,25.15067,49.86057,41.51303
			l56.65475-0.75636l-116.99658-80.61855L-545.13177-218.0795z"/>
		
			<linearGradient id="Path_7_1_" gradientUnits="userSpaceOnUse" x1="-965.3103" y1="525.55914" x2="-965.69983" y2="525.33374" gradientTransform="matrix(586.28302 0 0 -623.90002 565586 327879.375)">
			<stop  offset="0" style="stop-color:#0287D0"/>
			<stop  offset="1" style="stop-color:#3EDC81"/>
		</linearGradient>
		<path id="Path_7" class="st8" d="M-450.07529-33.72963L-553.48431,138.9967l126.40469-41.24474l35.90738-35.81683
			l-3.82053-53.71432L-450.07529-33.72963z"/>
		<path id="Path_8" class="st9" d="M-427.07962,97.75196l22.61859-36.61416l3.4263-22.31628l-152.44958,100.17436
			L-427.07962,97.75196z"/>
		
			<linearGradient id="Path_9_1_" gradientUnits="userSpaceOnUse" x1="-964.31226" y1="525.28882" x2="-964.63123" y2="525.02441" gradientTransform="matrix(1006.72003 0 0 -675.70001 970396 354876.6875)">
			<stop  offset="0" style="stop-color:#0077C0"/>
			<stop  offset="1" style="stop-color:#39D5FF"/>
		</linearGradient>
		<path id="Path_9" class="st10" d="M-494.75491-85.48275L-676.31885,101.5844l152.83142-12.68192l125.87842-72.39944
			l-27.7486-58.22697L-494.75491-85.48275z"/>
		<path id="Path_10" class="st11" d="M-494.75491-85.48275L-676.31885,101.5844L-423.83966-8.60914l-26.2359-25.12048
			L-494.75491-85.48275z"/>
		<path id="Path_11" class="st12" d="M-523.48743,88.90219l125.87842-72.39916l-52.46628-50.23266L-523.48743,88.90219z"/>
		
			<linearGradient id="Path_12_1_" gradientUnits="userSpaceOnUse" x1="-963.97931" y1="524.83734" x2="-964.27057" y2="524.56049" gradientTransform="matrix(1193.92212 0 0 -946.362 1150460.875 496555.5625)">
			<stop  offset="0" style="stop-color:#7E349D"/>
			<stop  offset="1" style="stop-color:#EA4C88"/>
		</linearGradient>
		<path id="Path_12" class="st13" d="M-639.82733-87.82157l-140.7851,163.96127l237.42603-57.02212l93.11057-52.84723
			l-65.41672-152.1304L-639.82733-87.82157z"/>
		<path id="Path_13" class="st14" d="M-639.82733-87.82157l-140.7851,163.96127l287.8511-186.47523l4.21448-12.85854
			l-26.94547-62.66569L-639.82733-87.82157z"/>
		<path id="Path_14" class="st15" d="M-639.82733-87.82157l121.56598-46.80721l5.5777-27.03932l-2.80646-24.19165
			L-639.82733-87.82157z"/>
		<path id="Path_15" class="st15" d="M-612.41174,35.74157l69.22589-16.62397l93.11057-52.84722l-44.6796-51.75312
			L-612.41174,35.74157z"/>
		<path id="Path_16" class="st16" d="M-671.5097-129.2795l101.61096-13.68024l-88.88721,1.18825L-671.5097-129.2795z"/>
		<path id="Path_17" class="st16" d="M-639.82733-87.82157l124.33502-98.03819L-668.39624-76.81737L-639.82733-87.82157z"/>
		<path id="Path_18" class="st17" d="M-552.64465-215.08287l37.1532,29.22311l-29.64032-32.22029L-552.64465-215.08287z"/>
		<path id="Path_19" class="st16" d="M-612.41205,35.74157l-11.89478,12.25391l81.63788-19.49794l92.59338-62.22717
			l-93.11053,52.84723L-612.41205,35.74157z"/>
		<path id="Path_20" class="st16" d="M-534.42712,107.17177l136.81897-90.66817L-523.48743,88.9022L-534.42712,107.17177z"/>
		
			<linearGradient id="Path_21_1_" gradientUnits="userSpaceOnUse" x1="-965.5553" y1="524.23181" x2="-965.18542" y2="524.52112" gradientTransform="matrix(422.70996 0 0 -172.92099 407428.28125 90464.1875)">
			<stop  offset="0" style="stop-color:#1EBC61"/>
			<stop  offset="1" style="stop-color:#F1C40F"/>
		</linearGradient>
		<path id="Path_21" class="st18" d="M-689.63696-192.02022l117.02704-27.05399l-29.22949-20.81908L-689.63696-192.02022z"/>
		<path id="Path_22" class="st4" d="M-641.03577-218.52051l68.42609-0.5537l-29.22949-20.81908L-641.03577-218.52051z"/>
		<path id="Path_23" class="st14" d="M-761.39301-41.00301l142.39917-101.2956l-39.79266,0.52602L-761.39301-41.00301z"/>
		<path id="Path_24" class="st16" d="M-437.94235,101.30062l10.86304-3.54865l22.61859-36.61417l6.85202-44.63449
			l-11.74396,44.47364L-437.94235,101.30062z"/>
		<path id="Path_25" class="st19" d="M-397.60901,16.50304l-6.85229,44.62674l-32.64746,53.02109l69.81171-24.44331
			l38.53247-42.42661l4.25183-18.29394l-36.31598-6.20558L-397.60901,16.50304z"/>
		<path id="Path_26" class="st17" d="M-404.4613,61.1378l-32.64746,53.01334l69.81171-24.44331l38.53247-42.42662l-45.4761,21.75648
			L-404.4613,61.1378z"/>
		
			<linearGradient id="Path_27_1_" gradientUnits="userSpaceOnUse" x1="-966.37207" y1="533.62262" x2="-966.7677" y2="533.30255" gradientTransform="matrix(299.534 0 0 -93.976 288937.71875 50251.64844)">
			<stop  offset="0" style="stop-color:#F39C12"/>
			<stop  offset="1" style="stop-color:#F1C40F"/>
		</linearGradient>
		<path id="Path_27" class="st20" d="M-541.06598,97.09361l-13.66864,26.0172l-69.2572-3.90718L-541.06598,97.09361z"/>
		<path id="Path_28" class="st4" d="M-583.65234,121.4785l42.58636-24.38462l-82.92584,22.10974L-583.65234,121.4785z"/>
		<path id="Path_29" class="st21" d="M-362.3309-115.58569l-46.64691-29.5174l-41.77881-11.85664l-29.08688-20.55882
			l-35.6463-8.3412l18.03174,41.93964l2.70319,58.43792l-5.90106,46.43262l50.58038,5.31994l52.46658,50.23267l73.09375,12.47622
			l39.70023-59.7358l-67.16367-59.24052L-362.3309-115.58569z"/>
		<path id="Path_30" class="st22" d="M-450.75717-156.95973l-29.07971-20.55882l-35.65543-8.3412l-2.76849,51.23099
			l23.49179,49.11695l68.28656-32.75294l54.29016,12.62599l9.86249-9.9472l-46.64801-29.51712L-450.75717-156.95973z"/>
		<path id="Path_31" class="st23" d="M-317.93674-18.23492l11.95465,19.32935l21.16846-31.85097l-32.87033-8.24541
			L-317.93674-18.23492z"/>
		<path id="Path_32" class="st23" d="M-412.66516-109.80038l17.09213,26.5255l20.84286,3.39334l16.12677,18.72195
			l-13.67886-38.33257L-412.66516-109.80038z"/>
		<path id="Path_33" class="st23" d="M-515.49091-185.85976l-4.41937,51.8622l25.14154,48.48574l19.98993-36.32541
			l-10.47156-36.9007L-515.49091-185.85976z"/>
		<path id="Path_34" class="st17" d="M-515.49231-185.85976l24.07346,30.0257l5.90573,35.07683l-16.565,21.1571l7.30884,14.08969
			l19.9899-36.3254l-10.47125-36.90209L-515.49231-185.85976z"/>
		<path id="Path_35" class="st17" d="M-450.07529-33.72963l30.69595-31.78231l-81.27191,26.46127L-450.07529-33.72963z"/>
		<path id="Path_36" class="st17" d="M-450.07556-33.72964l-50.58038-5.31994l5.90103-46.43317l-25.15536-48.51205l4.42072-51.86523
			l-10.62408,54.24974l24.37631,53.32368l-16.02957,57.60821l55.1019-5.9088l63.10449,55.80453l73.82907,5.00683l1.21594-5.24491
			l-73.09351-12.47622L-450.07556-33.72964z"/>
		<path id="Path_37" class="st17" d="M-449.44296-162.29184l-27.53348-20.04916l-38.51587-3.51875l35.65546,8.3412
			l29.07971,20.55882l41.77905,11.85774l-1.97946-6.96858L-449.44296-162.29184z"/>
		<path id="Path_38" class="st16" d="M-329.09985,10.67203l-65.89209-2.45123l-55.08362-41.95044l52.46655,50.23266
			l73.09406,12.47622l18.53287-27.88483l-11.95465-19.32935L-329.09985,10.67203z"/>
		<path id="Path_39" class="st24" d="M-395.57303-83.27488l-17.09213-26.52549l13.69989,28.86155l22.38879,5.5799l17.97058,14.19905
			l-16.12454-18.72194L-395.57303-83.27488z"/>
		<path id="Path_40" class="st22" d="M-317.68396-39.00139l32.87033,8.24485l-67.16476-59.24052L-317.68396-39.00139z"/>
		<path id="Path_41" class="st22" d="M-500.65125-39.04956l74.16797-79.21519l-68.27161,32.7823L-500.65125-39.04956z"/>
		<path id="Path_42" class="st22" d="M-394.99194,8.22081l65.89209,2.45123l11.16284-28.90695l-83.97064-58.95148
			L-394.99194,8.22081z"/>
		<path id="Path_43" class="st25" d="M-309.52188-24.81563l14.44653,9.50313l10.26117-15.44377l-32.86978-8.24568
			L-309.52188-24.81563z"/>
	</g>
</g>
</svg>
